# xmcd CD database file
#
# Track frame offsets:
#	150
#	42382
#	62627
#	83177
#	105255
#	130260
#	163287
#	183450
#	199600
#	221872
#	238030
#
# Disc length: 3465 seconds
#
# Revision: 0
# Processed by: cddbd v1.5.1PL2 Copyright (c) Steve Scherf et al.
# Submitted via: CDex 1.51
#
DISCID=9c0d870b
DTITLE=Eric Reed Trio - Blue Monk
DYEAR=2006
DGENRE=Jazz
TTITLE0=Blue Monk
TTITLE1=Am I Blue?
TTITLE2=Blue Daniel
TTITLE3=Blue Rose
TTITLE4=Born To Be Blue
TTITLE5=Black And Blue
TTITLE6=Very Near Blue
TTITLE7=Wild Man Blues
TTITLE8=Blue And Green
TTITLE9=Blue Chopsticks
TTITLE10=Light Blue
EXTD=YEAR: 2006
EXTT0=
EXTT1=
EXTT2=
EXTT3=
EXTT4=
EXTT5=
EXTT6=
EXTT7=
EXTT8=
EXTT9=
EXTT10=
PLAYORDER=
